<svg width="61" height="48" viewBox="0 0 61 48" fill="none" xmlns="http://www.w3.org/2000/svg">
<g clip-path="url(#clip0_8395_14204)">
<path d="M46.833 18C47.0861 18 47.3299 18.0094 47.583 18.0187C44.9205 7.65937 35.5268 0 24.333 0C11.0768 0 0.333008 10.7438 0.333008 24C0.333008 37.2562 11.0768 48 24.333 48C28.0361 48 31.5518 47.1562 34.683 45.6562C31.983 42.7219 30.333 38.8031 30.333 34.5C30.333 25.3875 37.7205 18 46.833 18ZM30.333 33C30.333 36.3094 27.6424 39 24.333 39C21.0236 39 18.333 36.3094 18.333 33C18.333 30.4781 19.8799 28.3219 22.083 27.4406V8.25C22.083 7.00313 23.0861 6 24.333 6C25.5799 6 26.583 7.00313 26.583 8.25V27.4406C28.7861 28.3313 30.333 30.4875 30.333 33ZM13.833 10.5C14.6287 10.5 15.3917 10.8161 15.9543 11.3787C16.5169 11.9413 16.833 12.7044 16.833 13.5C16.833 14.2956 16.5169 15.0587 15.9543 15.6213C15.3917 16.1839 14.6287 16.5 13.833 16.5C13.0374 16.5 12.2743 16.1839 11.7117 15.6213C11.1491 15.0587 10.833 14.2956 10.833 13.5C10.833 12.7044 11.1491 11.9413 11.7117 11.3787C12.2743 10.8161 13.0374 10.5 13.833 10.5ZM6.33301 24C6.33301 23.2044 6.64908 22.4413 7.21169 21.8787C7.7743 21.3161 8.53736 21 9.33301 21C10.1287 21 10.8917 21.3161 11.4543 21.8787C12.0169 22.4413 12.333 23.2044 12.333 24C12.333 24.7956 12.0169 25.5587 11.4543 26.1213C10.8917 26.6839 10.1287 27 9.33301 27C8.53736 27 7.7743 26.6839 7.21169 26.1213C6.64908 25.5587 6.33301 24.7956 6.33301 24ZM31.833 13.5C31.833 12.7044 32.1491 11.9413 32.7117 11.3787C33.2743 10.8161 34.0374 10.5 34.833 10.5C35.6287 10.5 36.3917 10.8161 36.9543 11.3787C37.5169 11.9413 37.833 12.7044 37.833 13.5C37.833 14.2956 37.5169 15.0587 36.9543 15.6213C36.3917 16.1839 35.6287 16.5 34.833 16.5C34.0374 16.5 33.2743 16.1839 32.7117 15.6213C32.1491 15.0587 31.833 14.2956 31.833 13.5ZM46.833 48C50.4134 48 53.8472 46.5777 56.3789 44.0459C58.9107 41.5142 60.333 38.0804 60.333 34.5C60.333 30.9196 58.9107 27.4858 56.3789 24.9541C53.8472 22.4223 50.4134 21 46.833 21C43.2526 21 39.8188 22.4223 37.2871 24.9541C34.7553 27.4858 33.333 30.9196 33.333 34.5C33.333 38.0804 34.7553 41.5142 37.2871 44.0459C39.8188 46.5777 43.2526 48 46.833 48ZM51.3236 26.9062C51.7268 27.2531 51.8299 27.8344 51.5674 28.3031L48.7455 33.375H52.083C52.5705 33.375 53.0018 33.6844 53.1518 34.1438C53.3018 34.6031 53.1424 35.1094 52.758 35.4L43.758 42.15C43.3361 42.4688 42.7455 42.45 42.3424 42.0938C41.9393 41.7375 41.8361 41.1656 42.0986 40.6969L44.9205 35.625H41.583C41.0955 35.625 40.6643 35.3156 40.5143 34.8562C40.3643 34.3969 40.5236 33.8906 40.908 33.6L49.908 26.85C50.3299 26.5312 50.9205 26.55 51.3236 26.9062Z" fill="#2FBBE5"/>
</g>
<defs>
<clipPath id="clip0_8395_14204">
<rect width="60" height="48" fill="white" transform="translate(0.333008)"/>
</clipPath>
</defs>
</svg>
