<svg width="55" height="48" viewBox="0 0 55 48" fill="none" xmlns="http://www.w3.org/2000/svg">
<g clip-path="url(#clip0_8395_14215)">
<path d="M24.667 3C23.0076 3 21.667 4.34062 21.667 6V6.21563V15.5531C21.667 16.0781 21.2451 16.5 20.7201 16.5C20.3826 16.5 20.0639 16.3219 19.8951 16.0219L15.3951 8.15625C8.44824 11.5781 3.66699 18.7313 3.66699 27V33H51.667V26.775C51.5826 18.6 46.8201 11.55 39.9389 8.15625L35.4389 16.0219C35.2701 16.3219 34.9514 16.5 34.6139 16.5C34.0889 16.5 33.667 16.0781 33.667 15.5531V6.21563V6C33.667 4.34062 32.3264 3 30.667 3H24.667ZM2.22324 36C1.36074 36 0.666992 36.6938 0.666992 37.5563C0.666992 37.9969 0.854492 38.4188 1.21074 38.6719C3.24512 40.1625 11.1482 45 27.667 45C44.1857 45 52.0889 40.1625 54.1232 38.6719C54.4795 38.4094 54.667 37.9969 54.667 37.5563C54.667 36.6938 53.9732 36 53.1107 36H2.22324Z" fill="#2FBBE5"/>
</g>
<defs>
<clipPath id="clip0_8395_14215">
<rect width="54" height="48" fill="white" transform="translate(0.666992)"/>
</clipPath>
</defs>
</svg>
